<?xml version="1.0" encoding="UTF-8" standalone="no"?>
<svg width="16" height="14" viewBox="0 0 16 14" xmlns="http://www.w3.org/2000/svg"><title>Email</title><path d="M16 4.625a5.26 5.26 0 0 1-.893.777 171.013 171.013 0 0 0-4.446 3.08c-.75.554-1.679 1.232-2.652 1.232H7.99c-.973 0-1.902-.678-2.652-1.232C3.884 7.42 2.384 6.411.902 5.402A4.993 4.993 0 0 1 0 4.625v7.09c0 .785.643 1.428 1.429 1.428H14.57c.786 0 1.429-.643 1.429-1.429V4.625zM16 2c0-.786-.652-1.429-1.429-1.429H1.43C.473.571 0 1.321 0 2.196c0 .813.902 1.822 1.536 2.25 1.384.965 2.785 1.929 4.17 2.902.58.402 1.562 1.223 2.285 1.223h.018c.723 0 1.705-.821 2.286-1.223 1.384-.973 2.785-1.937 4.178-2.902C15.26 3.902 16 3 16 2z" fill="#FFF" fill-rule="evenodd"/></svg>