<?xml version="1.0" encoding="UTF-8" standalone="no"?>
<svg width="31" height="49" viewBox="0 0 31 49" xmlns="http://www.w3.org/2000/svg" xmlns:xlink="http://www.w3.org/1999/xlink"><title>Hint</title><defs><path d="M1.428 1.938c-.056-1.24.68-1.7.979-1.852.299-.158 1.43-.198 1.908.787.315.667 2.442 6.889 3.865 10.87.42-.24 1.245-.62 2.133-.62.89 0 1.286.238 1.86 1.366.316-.286.566-.342.566-.342s2.151-.77 3.404.5c.477.485.85 1.09 1.116 1.653.178-.222.33-.357.33-.357 1.255-1.04 2.426 0 3.235.794.808.795 1.617 3.028 2.425 4.768.81 1.74.648 3.17.648 7.34 0 4.172-.34 6.897.582 7.62l2.474 2.36s-1.22 2.765-4.083 4.926c-2.878 2.161-6.896 2.384-6.896 2.384s0-1.59-3.235-4.767c-3.234-3.179-4.043-1.59-7.106-6.666-3.065-5.077-2.7-8.573-2.87-10.083-.162-1.517-1.375-4.854-1.375-4.854s-1.18-1.923-.63-2.21c.557-.277 1.584-.706 3.007.319.865.699 1.32 1.137 1.49 2.003 0 0-3.762-14.366-3.827-15.94z" id="a"/><mask id="b" x="-2" y="-2" width="30.342" height="48.135"><path fill="#fff" d="M-1.389-2h30.342v48.135H-1.389z"/><use xlink:href="#a"/></mask></defs><g fill="none" fill-rule="evenodd"><g transform="translate(2 2)"><use fill="#FFF" xlink:href="#a"/><use stroke="#FFF" mask="url(#b)" stroke-width="4" stroke-linecap="round" stroke-linejoin="round" xlink:href="#a"/><use stroke="#555" stroke-width="1.5" stroke-linecap="round" stroke-linejoin="round" xlink:href="#a"/></g><path d="M10.281 14.164c.767 2.264 1.065 3.33 1.065 3.33s1.415 2.93 1.85 3.28M14.41 14.927c.478.93 1.068 2.455 2.143 4.95M19.165 16.198c.436.906.622 1.692.622 1.692s.954 1.32 1.9 1.836M7.255 19.877c.17.858 1.816 5.696 1.816 5.696s.26 1.796-.444 2.956" stroke="#555" stroke-linecap="round" stroke-linejoin="round"/></g></svg>