<?xml version="1.0" encoding="UTF-8" standalone="no"?>
<svg width="11" height="13" viewBox="0 0 11 13" xmlns="http://www.w3.org/2000/svg"><title>Lock</title><path d="M6 8.915a1.5 1.5 0 1 0-1 0v1.59c0 .28.224.495.5.495.268 0 .5-.222.5-.495v-1.59zM2 4h-.008A2 2 0 0 0 0 5.997v5.006C0 12.104.892 13 1.992 13h7.016A2 2 0 0 0 11 11.003V5.997A1.996 1.996 0 0 0 9.008 4H9V2.01A2 2 0 0 0 7 0H4C2.89 0 2 .901 2 2.01V4zm2-1c0-.552.443-1 .999-1h1.002C6.553 2 7 2.444 7 3v1H4V3z" fill="#fff" fill-rule="evenodd"/></svg>