<?xml version="1.0" encoding="UTF-8" standalone="no"?>
<svg width="22" height="18" viewBox="0 0 22 18" xmlns="http://www.w3.org/2000/svg"><title>Reddit</title><path d="M1.977 10.835c-.054.248-.08.502-.08.76 0 3.086 3.945 5.6 8.795 5.6s8.795-2.513 8.795-5.6c0-.246-.027-.49-.074-.725l-.013-.03c-.018-.048-.027-.098-.027-.148-.268-1.052-1-2.01-2.057-2.78-.04-.014-.078-.035-.113-.064-.023-.017-.04-.037-.06-.057-1.607-1.105-3.905-1.798-6.45-1.798-2.524 0-4.8.68-6.405 1.765-.013.016-.027.03-.044.045-.035.03-.075.053-.117.067-1.08.772-1.83 1.734-2.11 2.798 0 .05-.013.104-.033.153l-.007.015zm8.76 4.878c-1.608 0-2.74-.35-3.463-1.074-.156-.156-.156-.41 0-.567.157-.156.412-.156.57 0 .563.564 1.51.84 2.89.84 1.384 0 2.33-.275 2.895-.84.155-.154.41-.154.565 0 .157.16.157.413 0 .57-.722.722-1.855 1.074-3.462 1.074l.004-.004zM7.505 8.925c-.82 0-1.503.684-1.503 1.503 0 .816.684 1.48 1.503 1.48.82 0 1.48-.664 1.48-1.48 0-.82-.663-1.503-1.48-1.503zm6.482 0c-.818 0-1.503.684-1.503 1.503 0 .816.685 1.48 1.503 1.48.82 0 1.48-.664 1.48-1.48 0-.82-.662-1.503-1.48-1.503zm4.077-1.43c.93.747 1.614 1.632 1.963 2.604.402-.303.644-.777.644-1.3 0-.9-.73-1.63-1.63-1.63-.357 0-.696.118-.976.327zM2.432 7.174c-.9 0-1.63.732-1.63 1.63 0 .487.215.94.578 1.244.36-.966 1.05-1.846 1.983-2.582-.27-.188-.594-.293-.93-.293zM10.692 18c-5.293 0-9.598-2.872-9.598-6.402 0-.245.02-.487.062-.724C.443 10.432 0 9.652 0 8.8c0-1.342 1.09-2.432 2.432-2.432.598 0 1.167.22 1.61.61 1.665-1.067 3.906-1.74 6.375-1.784l1.62-4.952.356.084c.002 0 .005 0 .008.003l3.78.89C16.486.502 17.196 0 18.023 0c1.103 0 2 .9 2 2.002 0 1.105-.897 2.003-2 2.003-1.105 0-2.003-.9-2.004-2l-3.45-.813-1.31 4.01c2.38.093 4.528.766 6.133 1.81.447-.412 1.03-.644 1.648-.644 1.344 0 2.433 1.093 2.433 2.433 0 .894-.475 1.692-1.234 2.12.032.222.052.447.052.676-.002 3.53-4.308 6.4-9.6 6.4V18zM18.024.803c-.663 0-1.2.536-1.2 1.2 0 .66.536 1.2 1.2 1.2.656 0 1.196-.538 1.196-1.2 0-.66-.537-1.2-1.2-1.2h.004z" fill="#0A538D" fill-rule="evenodd"/></svg>
