<?xml version="1.0" encoding="UTF-8" standalone="no"?>
<svg width="22" height="18" viewBox="0 0 22 18" xmlns="http://www.w3.org/2000/svg"><title>Twitter</title><path d="M21.857 2.12c-.617.907-1.375 1.723-2.238 2.357v.58C19.619 11.076 15.124 18 6.874 18c-2.52 0-4.882-.761-6.874-2.048.353.054.723.072 1.075.072a8.859 8.859 0 0 0 5.57-1.958c-1.956-.036-3.613-1.34-4.195-3.154.282.055.564.091.846.091.406 0 .811-.054 1.181-.163C2.432 10.423.881 8.592.881 6.38v-.054a4.368 4.368 0 0 0 2.027.562 4.546 4.546 0 0 1-1.991-3.77c0-.834.229-1.632.617-2.302 2.203 2.755 5.5 4.568 9.236 4.749a3.947 3.947 0 0 1-.123-1.033C10.647 2.03 12.656 0 15.124 0c1.286 0 2.467.544 3.278 1.432A9.034 9.034 0 0 0 21.24.326a4.608 4.608 0 0 1-1.956 2.52 8.936 8.936 0 0 0 2.573-.725" fill="#0D5490" fill-rule="evenodd"/></svg>