<?xml version="1.0" encoding="UTF-8" standalone="no"?>
<svg width="22" height="22" viewBox="0 0 22 22" xmlns="http://www.w3.org/2000/svg"><title>WhatsApp</title><path d="M16.633 13.232c-.284-.14-1.67-.814-1.93-.907-.258-.094-.446-.14-.635.141-.187.278-.73.905-.894 1.091-.164.186-.329.208-.61.07-.284-.14-1.194-.436-2.272-1.385-.84-.739-1.405-1.652-1.57-1.932-.165-.279-.02-.43.123-.569.127-.127.283-.327.425-.49.14-.163.185-.279.281-.464.094-.188.047-.35-.024-.49-.071-.141-.636-1.512-.871-2.07-.227-.544-.461-.47-.636-.478-.163-.008-.352-.01-.539-.01-.19 0-.496.07-.755.348-.258.281-.987.954-.987 2.327 0 1.372 1.012 2.698 1.152 2.885.142.186 1.992 3.003 4.823 4.21.676.288 1.2.46 1.612.588.675.21 1.29.183 1.777.112.544-.082 1.672-.676 1.907-1.327.237-.652.237-1.21.166-1.328-.07-.117-.258-.187-.542-.326M11 20.086h-.005a9.08 9.08 0 0 1-4.625-1.266l-.33-.197-3.44.902.92-3.35-.22-.344a9.055 9.055 0 0 1-1.386-4.835c0-5.007 4.076-9.083 9.09-9.083a9.027 9.027 0 0 1 6.422 2.666 9.018 9.018 0 0 1 2.662 6.425c-.004 5.007-4.08 9.083-9.09 9.083m7.798-16.896A10.948 10.948 0 0 0 11.044 0C5.009 0 .096 4.89.092 10.901c0 1.92.503 3.795 1.462 5.45L0 22l5.807-1.515c1.6.866 3.401 1.325 5.234 1.327h.006c6.036 0 10.95-4.891 10.953-10.904 0-2.911-1.137-5.651-3.204-7.711" fill="#0A538D" fill-rule="evenodd"/></svg>